<svg width="41" height="41" viewBox="0 0 41 41" fill="none" xmlns="http://www.w3.org/2000/svg">
<path d="M34.4056 27.8214H34.3735C34.002 20.7362 28.3173 15.0515 21.232 14.68V9.51784H30.0176C30.4223 9.51784 30.7498 9.1903 30.7498 8.78569V2.92863C30.7498 2.52401 30.4223 2.19647 30.0176 2.19647H21.232V0H19.7676V2.92863V8.78569V14.68C12.6825 15.0515 6.99779 20.7362 6.62627 27.8214H6.59417C4.97688 27.8214 3.66058 29.1347 3.66058 30.75C3.66058 32.3653 4.97688 33.6786 6.59417 33.6786H7.32137V40.2678C7.32137 40.6725 7.64891 41 8.05353 41H32.9463C33.3509 41 33.6784 40.6725 33.6784 40.2678V33.6786H34.4056C36.0229 33.6786 37.3392 32.3653 37.3392 30.75C37.3394 29.1347 36.0231 27.8214 34.4056 27.8214ZM21.2324 3.66079H29.2859V8.05353H21.2324V3.66079ZM20.5002 16.1071C27.1174 16.1071 32.5448 21.2977 32.9251 27.8214H8.07512C8.45537 21.2977 13.8828 16.1071 20.5002 16.1071ZM32.2141 39.5355H8.78568V33.6784H32.2141V39.5355ZM34.4056 32.2141H32.9463H8.05353H6.59417C5.78414 32.2141 5.1249 31.5571 5.1249 30.7498C5.1249 29.9425 5.78414 29.2855 6.59417 29.2855H7.32137H33.6784H34.4056C35.2157 29.2855 35.8749 29.9425 35.8749 30.7498C35.8751 31.5571 35.2159 32.2141 34.4056 32.2141Z" fill="#848484"/>
<path d="M18.3037 18.3035H16.1072V19.7678H18.3037V18.3035Z" fill="#848484"/>
<path d="M23.4288 21.2322H21.2324V22.6965H23.4288V21.2322Z" fill="#848484"/>
<path d="M13.911 23.4283H11.7145V24.8927H13.911V23.4283Z" fill="#848484"/>
<path d="M29.2859 24.1605H27.0894V25.6248H29.2859V24.1605Z" fill="#848484"/>
<path d="M20.5 24.8928H18.3035V26.3571H20.5V24.8928Z" fill="#848484"/>
</svg>
