<svg width="41" height="41" viewBox="0 0 41 41" fill="none" xmlns="http://www.w3.org/2000/svg">
<path d="M34.7762 11.5915C34.6353 11.4308 34.4322 11.3389 34.2185 11.3389H27.3228C27.0625 11.3389 26.8212 11.4753 26.6874 11.6981C26.5533 11.9211 26.5459 12.198 26.6677 12.428C26.7588 12.5996 26.8032 12.7656 26.8032 12.9342C26.8032 14.1967 24.1075 15.6083 20.5001 15.6083C16.8927 15.6083 14.197 14.1967 14.197 12.9342C14.197 12.7654 14.2412 12.5996 14.3325 12.428C14.4545 12.198 14.4469 11.9211 14.3128 11.6981C14.1788 11.4753 13.9377 11.3389 13.6774 11.3389H6.78173C6.56799 11.3389 6.36489 11.4308 6.22401 11.5915C6.08313 11.7519 6.0187 11.9652 6.0466 12.1769L9.75435 40.3552C9.80292 40.7243 10.1172 41.0001 10.4893 41.0001H30.5107C30.883 41.0001 31.1973 40.7241 31.2457 40.3552L34.9534 12.1769C34.9815 11.9652 34.9171 11.7519 34.7762 11.5915ZM29.8607 39.517H11.1399L7.62744 12.8218H12.7167C12.7149 12.8591 12.7141 12.8964 12.7141 12.934C12.7141 15.3041 16.0616 17.0912 20.5003 17.0912C24.939 17.0912 28.2865 15.3041 28.2865 12.934C28.2865 12.8962 28.2857 12.8589 28.2839 12.8218H33.3732L29.8607 39.517Z" fill="#848484"/>
<path d="M15.5926 12.7253C15.6988 13.1207 16.1058 13.3553 16.5007 13.2495C16.8965 13.1434 17.1311 12.7372 17.0249 12.3414L14.6714 3.5576L16.7743 2.99427L18.7617 12.8022C18.833 13.1538 19.1422 13.3964 19.4876 13.3964C19.5364 13.3964 19.5857 13.3918 19.6357 13.3816C20.0369 13.3005 20.2966 12.9092 20.2149 12.5076L18.0713 1.92639C18.0308 1.7259 17.9092 1.5513 17.735 1.44333C17.562 1.33536 17.3505 1.30425 17.1528 1.35744L13.5715 2.31694C13.3814 2.36771 13.2195 2.49214 13.1211 2.66232C13.023 2.83251 12.9963 3.0348 13.0473 3.22486L15.5926 12.7253Z" fill="#848484"/>
<path d="M21.9543 12.4964C21.9939 12.8776 22.3158 13.1611 22.6913 13.1611C22.7165 13.1611 22.7426 13.1599 22.7687 13.1571C23.1761 13.1148 23.4719 12.7501 23.4296 12.3429L22.4071 2.50127L24.246 3.00099L25.0231 11.1976C25.0618 11.6052 25.4251 11.9036 25.8313 11.8661C26.2389 11.8273 26.5383 11.4657 26.4998 11.0579L25.6741 2.35035C25.6448 2.0429 25.4283 1.78561 25.1302 1.70473L21.752 0.786575C21.5166 0.722555 21.2635 0.778547 21.0775 0.937093C20.8911 1.09524 20.7947 1.33546 20.82 1.5787L21.9543 12.4964Z" fill="#848484"/>
<path d="M28.1578 10.5492C28.5757 10.5775 28.9186 10.2632 28.9431 9.85439L29.4483 1.5976L30.7843 1.8021L30.4082 9.858C30.3889 10.2672 30.7054 10.6144 31.1142 10.6337C31.126 10.6341 31.1377 10.6345 31.1497 10.6345C31.5433 10.6345 31.8714 10.3248 31.8899 9.92764L32.2973 1.20525C32.3149 0.826143 32.0438 0.494803 31.6687 0.437606L28.8703 0.00893212C28.664 -0.0225762 28.4546 0.033617 28.2925 0.164668C28.1303 0.295317 28.0308 0.488782 28.0181 0.696497L27.4634 9.76388C27.4379 10.1727 27.749 10.5243 28.1578 10.5492Z" fill="#848484"/>
<path d="M7.80002 10.5026C7.87066 10.8552 8.18013 11.0986 8.52632 11.0986C8.57448 11.0986 8.62365 11.094 8.67262 11.0842C9.0742 11.0037 9.3345 10.6132 9.25422 10.2116L7.81126 3.01023L8.90803 2.55105L11.743 10.4741C11.8809 10.86 12.3053 11.0607 12.6908 10.9224C13.0764 10.7846 13.2771 10.3601 13.1392 9.97458L10.0409 1.3154C9.97249 1.12394 9.8284 0.96881 9.64196 0.886527C9.45612 0.804645 9.24439 0.802839 9.05654 0.881108L6.67876 1.87653C6.35324 2.0126 6.16861 2.35999 6.23805 2.70618L7.80002 10.5026Z" fill="#848484"/>
<path d="M20.5003 21.7201C18.2514 21.7201 16.4219 23.5496 16.4219 25.7985C16.4219 28.0475 18.2514 29.877 20.5003 29.877C22.7492 29.877 24.5787 28.0475 24.5787 25.7985C24.5787 23.5496 22.749 21.7201 20.5003 21.7201ZM20.5003 28.3941C19.0694 28.3941 17.905 27.2296 17.905 25.7987C17.905 24.3678 19.0694 23.2034 20.5003 23.2034C21.9312 23.2034 23.0956 24.3678 23.0956 25.7987C23.0956 27.2294 21.9312 28.3941 20.5003 28.3941Z" fill="#848484"/>
</svg>
