<svg width="41" height="41" viewBox="0 0 41 41" fill="none" xmlns="http://www.w3.org/2000/svg">
<g clip-path="url(#clip0)">
<path d="M30.6118 21.5116H30.5809C31.0388 20.9065 31.3209 20.1614 31.3209 19.3457V18.5744C31.3209 17.4705 30.8905 16.5134 30.1092 15.8804C29.8036 15.6331 29.4602 15.4513 29.0902 15.3325C29.2897 13.9878 29.518 11.1648 28.1866 9.90819C27.9449 9.67964 27.6933 9.52864 27.4349 9.42511C27.8856 4.43485 25.3967 0.383804 23.3667 0.0274963C22.5775 -0.113542 21.625 0.2623 21.3081 1.72543C20.9694 3.29091 19.91 3.44817 17.9103 3.6103C16.7537 3.70485 15.4425 3.81131 14.2933 4.43016C13.4746 4.87066 12.9484 5.52057 12.7292 6.36075C12.4104 7.58301 12.854 8.92581 13.2385 9.77282C12.5342 9.95058 11.9275 10.2415 11.4688 10.6999C10.0155 12.1531 10.6859 14.5605 11.0963 15.6435C11.0172 15.7025 10.9383 15.7619 10.8637 15.8279C10.0922 16.5116 9.66718 17.4864 9.66718 18.5746V19.3459C9.66718 20.1618 9.94925 20.9067 10.4071 21.5118H10.389C9.99047 21.5118 9.66718 21.8347 9.66718 22.2336C9.66718 22.6325 9.99047 22.9554 10.389 22.9554H11.931L14.4965 40.3832C14.5486 40.7378 14.8524 40.9999 15.2105 40.9999H26.4988C26.8569 40.9999 27.1606 40.7378 27.2128 40.3832L29.7782 22.9554H30.6112C31.0097 22.9554 31.333 22.6325 31.333 22.2336C31.3336 21.8343 31.0103 21.5116 30.6118 21.5116ZM14.1261 6.72506C14.2417 6.28241 14.5205 5.94701 14.978 5.70087C15.8608 5.22502 16.9621 5.13555 18.0273 5.0496C19.9544 4.89313 22.1381 4.71614 22.7197 2.03134C22.8099 1.6133 22.9459 1.41952 23.1176 1.44921C24.223 1.64338 26.4045 4.86011 25.9989 9.29462C25.5467 9.3585 25.0802 9.48918 24.6038 9.62358C23.5612 9.91757 22.3778 10.2489 20.9303 10.0705L19.988 9.94922C18.1691 9.71324 16.3192 9.4759 14.7401 9.56029C14.3888 8.90452 13.8811 7.66486 14.1261 6.72506ZM12.4897 11.7204C13.6323 10.5792 16.9103 11.0051 19.8016 11.3807L20.751 11.5026C22.4927 11.721 23.8802 11.3278 24.9956 11.0127C26.2566 10.656 26.7733 10.5595 27.1956 10.957C27.926 11.6471 27.8801 13.7299 27.6531 15.194C27.5087 15.2091 27.363 15.2307 27.2153 15.2622C27.1925 15.2678 24.9038 15.8416 23.2895 15.8416C20.2861 15.8416 13.8177 14.9801 13.7442 14.9711C13.284 14.9147 12.8366 14.9416 12.4133 15.0383C12.1055 14.1937 11.6611 12.5491 12.4897 11.7204ZM15.8342 39.556L15.2062 35.2887L19.4735 39.556H15.8342ZM21.5148 39.5561L15.2302 33.2715C15.1315 33.1729 15.0093 33.1213 14.8827 33.0918L14.3339 29.3641L24.526 39.5561H21.5148ZM25.9645 38.9533L13.9815 26.9703L13.4592 23.4225C13.4707 23.4358 13.475 23.4526 13.4877 23.4653L26.3509 36.3285L25.9645 38.9533ZM26.6129 34.5493L15.0188 22.9552H18.0301L26.8479 31.7731C26.8946 31.8197 26.9514 31.8469 27.0061 31.8782L26.6129 34.5493ZM27.2612 30.1451L20.0712 22.955H23.0824L27.4361 27.3083C27.5013 27.3735 27.5775 27.4202 27.6572 27.4552L27.2612 30.1451ZM27.9096 25.7406L25.1238 22.9552H27.714H28.3196L27.9096 25.7406ZM29.8773 19.3457C29.8773 20.5396 28.907 21.5116 27.714 21.5116H13.2742C12.0812 21.5116 11.111 20.5396 11.111 19.3457V18.5744C11.111 17.9056 11.3633 17.3141 11.821 16.9082C12.2088 16.5649 12.7112 16.3837 13.2551 16.3837C13.3559 16.3837 13.458 16.3901 13.561 16.4028C13.8302 16.4387 20.1898 17.2854 23.2895 17.2854C25.0847 17.2854 27.4687 16.6876 27.5419 16.6687C28.1813 16.5333 28.7687 16.6519 29.2004 17.0027C29.637 17.3557 29.8773 17.914 29.8773 18.5744V19.3457Z" fill="#848484"/>
</g>
<defs>
<clipPath id="clip0">
<rect width="41" height="41" fill="white"/>
</clipPath>
</defs>
</svg>
