<svg width="32" height="41" viewBox="0 0 32 41" fill="none" xmlns="http://www.w3.org/2000/svg">
<path d="M28.7501 13.3774H28.707C28.2844 8.10526 23.3338 3.9277 17.2929 3.9277C15.8468 3.9277 14.468 4.17696 13.1927 4.61311L11.8221 2.43689C11.7052 2.25078 11.4997 2.11819 11.2595 2.07195L0.368135 0L0 1.4198L10.5124 3.41955L11.6655 5.25032C8.41544 6.88691 6.15794 9.89077 5.87845 13.3776H5.83551C4.43255 13.3776 3.29163 14.3557 3.29163 15.5584C3.29163 16.761 4.43278 17.7391 5.83551 17.7391H6.75596L9.03091 40.3354C9.06811 40.711 9.43602 41 9.87627 41H24.7094C25.1494 41 25.5173 40.711 25.5545 40.3354L27.8295 17.7391H28.7499C30.1529 17.7391 31.2938 16.761 31.2938 15.5584C31.294 14.3557 30.1529 13.3774 28.7501 13.3774ZM17.2929 5.38154C22.4 5.38154 26.6031 8.90673 27.0174 13.3774H7.56848C7.98254 8.90653 12.1857 5.38154 17.2929 5.38154ZM23.9313 39.5458H10.6546L9.26424 25.7348H25.3216L23.9313 39.5458ZM25.4679 24.2807H9.11795L8.4593 17.7387H26.1264L25.4679 24.2807ZM28.7501 16.2849H27.0514H7.53449H5.83574C5.36081 16.2849 4.98877 15.9654 4.98877 15.558C4.98877 15.1568 5.36839 14.831 5.83574 14.831H6.68591H27.8997H28.7499C29.2248 14.831 29.5969 15.1505 29.5969 15.558C29.5969 15.9591 29.2173 16.2849 28.7501 16.2849Z" fill="#848484"/>
</svg>
