<svg width="41" height="41" viewBox="0 0 41 41" fill="none" xmlns="http://www.w3.org/2000/svg">
<g clip-path="url(#clip0)">
<path d="M40.0351 21.8253C39.9799 21.6376 38.5953 17.1417 30.7589 9.30579C22.9232 1.46967 18.4271 0.0850811 18.2396 0.029809C17.8819 -0.0745718 17.5068 0.10218 17.359 0.441964L0.996089 38.1026C0.875604 38.3791 0.936841 38.7012 1.15037 38.9148C1.36311 39.1275 1.6852 39.1899 1.96256 39.069L9.7106 35.703V36.2231C9.7106 37.6419 10.8642 38.7961 12.2817 38.7961C13.6993 38.7961 14.8529 37.6417 14.8529 36.2231V33.4687L17.7915 32.192V38.427C17.7915 39.8458 18.945 41 20.3626 41C21.7802 41 22.9338 39.8456 22.9338 38.427V29.9577L39.6232 22.7061C39.963 22.5586 40.1395 22.1808 40.0351 21.8253ZM21.9063 28.8021C21.638 28.9186 21.4643 29.1831 21.4643 29.4757V38.4268C21.4643 39.0356 20.97 39.5305 20.3624 39.5305C19.7548 39.5305 19.2606 39.0354 19.2606 38.4268V31.0717C19.2606 30.8241 19.1357 30.5931 18.9287 30.4573C18.807 30.3776 18.6669 30.3372 18.5259 30.3372C18.4265 30.3372 18.3269 30.3573 18.2332 30.3983L13.8256 32.3133C13.5574 32.4298 13.3836 32.6942 13.3836 32.9869V36.2231C13.3836 36.8319 12.8893 37.3268 12.2817 37.3268C11.6742 37.3268 11.1799 36.8317 11.1799 36.2231V34.5828C11.1799 34.3353 11.055 34.1043 10.8481 33.9685C10.6407 33.8325 10.3792 33.8106 10.1526 33.9092L3.08649 36.9794L16.1627 6.88216C16.8234 6.80283 18.6625 6.78514 20.3509 8.64511C21.3114 9.70363 21.8059 10.6291 22.2419 11.4459C22.8642 12.612 23.402 13.619 24.92 13.95L25.287 14.029C27.1374 14.4242 28.5994 14.7368 29.9322 16.9926C30.438 17.8481 30.8993 18.8001 31.3455 19.721C32.1282 21.3356 32.8307 22.7743 33.7096 23.6736L21.9063 28.8021ZM35.2199 23.0175C34.3383 22.5232 33.489 20.775 32.6676 19.0802C32.2085 18.1326 31.7336 17.1526 31.1969 16.245C29.5364 13.4345 27.5321 13.0062 25.5936 12.5919L25.2331 12.5144C24.4114 12.335 24.1358 11.8738 23.538 10.7534C23.0853 9.90583 22.5222 8.85089 21.4384 7.65717C19.787 5.83855 17.9815 5.43236 16.8089 5.39439L18.4249 1.67505C19.8487 2.30213 23.7664 4.39074 29.7201 10.3446C35.6376 16.2621 37.7497 20.2101 38.3865 21.6412L35.2199 23.0175Z" fill="#848484"/>
<path d="M17.0566 15.2877C15.0314 15.2877 13.3834 16.9355 13.3834 18.9609C13.3834 20.9863 15.0312 22.6341 17.0566 22.6341C19.082 22.6341 20.7299 20.9863 20.7299 18.9609C20.7299 16.9355 19.0818 15.2877 17.0566 15.2877ZM17.0566 21.1647C15.8414 21.1647 14.8527 20.1761 14.8527 18.9607C14.8527 17.7453 15.8412 16.7568 17.0566 16.7568C18.272 16.7568 19.2606 17.7453 19.2606 18.9607C19.2606 20.1761 18.2718 21.1647 17.0566 21.1647Z" fill="#848484"/>
<path d="M11.9141 24.8378C10.2937 24.8378 8.97556 26.156 8.97556 27.7764C8.97556 29.3968 10.2937 30.715 11.9141 30.715C13.5345 30.715 14.8527 29.3968 14.8527 27.7764C14.8527 26.156 13.5345 24.8378 11.9141 24.8378ZM11.9141 29.2455C11.1039 29.2455 10.4448 28.5866 10.4448 27.7762C10.4448 26.9658 11.1037 26.3069 11.9141 26.3069C12.7243 26.3069 13.3834 26.9658 13.3834 27.7762C13.3834 28.5866 12.7245 29.2455 11.9141 29.2455Z" fill="#848484"/>
<path d="M26.2393 16.757C24.0114 16.757 22.1989 18.5695 22.1989 20.7975C22.1989 23.0254 24.0114 24.8379 26.2393 24.8379C28.4673 24.8379 30.2798 23.0254 30.2798 20.7975C30.2798 18.5695 28.4673 16.757 26.2393 16.757ZM26.2393 23.3686C24.8218 23.3686 23.6682 22.215 23.6682 20.7975C23.6682 19.3799 24.8218 18.2263 26.2393 18.2263C27.6569 18.2263 28.8105 19.3799 28.8105 20.7975C28.8105 22.215 27.6569 23.3686 26.2393 23.3686Z" fill="#848484"/>
</g>
<defs>
<clipPath id="clip0">
<rect width="41" height="41" fill="white"/>
</clipPath>
</defs>
</svg>
